<?xml version="1.0" standalone="no"?>
<!DOCTYPE svg PUBLIC "-//W3C//DTD SVG 20010904//EN"
 "http://www.w3.org/TR/2001/REC-SVG-20010904/DTD/svg10.dtd">
<svg version="1.0" xmlns="http://www.w3.org/2000/svg"
 width="512.000000pt" height="512.000000pt" viewBox="0 0 512.000000 512.000000"
 preserveAspectRatio="xMidYMid meet">

<g transform="translate(0.000000,512.000000) scale(0.100000,-0.100000)"
fill="#000000" stroke="none">
<path d="M197 4896 c-69 -19 -125 -63 -159 -123 -44 -78 -45 -130 -8 -318 155
-765 503 -1385 949 -1688 274 -185 614 -236 916 -136 101 34 195 82 272 140
l52 39 15 -22 c30 -47 126 -279 165 -401 81 -255 121 -512 121 -783 l0 -161
-87 -17 c-184 -36 -333 -117 -483 -262 -83 -80 -102 -94 -155 -109 -155 -44
-329 -172 -427 -315 l-33 -48 -78 -6 c-157 -13 -295 -77 -405 -187 -28 -28
-61 -71 -73 -95 l-21 -44 -204 0 c-191 0 -205 -1 -224 -20 -30 -30 -27 -83 6
-109 l27 -21 2194 0 2194 0 24 25 c32 31 33 74 2 103 -22 21 -33 22 -180 22
l-157 0 -14 35 c-35 82 -147 183 -261 236 -67 30 -191 59 -257 59 -39 0 -45 4
-67 38 -96 148 -267 276 -436 328 -51 15 -71 29 -138 97 -143 143 -314 236
-501 273 l-86 17 0 51 c0 28 5 90 10 136 43 348 174 691 370 968 l52 74 56
-54 c142 -134 309 -207 514 -223 158 -13 388 39 431 97 26 35 14 86 -25 107
-24 14 -33 13 -115 -14 -81 -28 -99 -30 -233 -30 -126 0 -154 3 -215 24 -92
30 -186 86 -259 153 l-59 54 68 72 c190 202 437 384 730 538 130 68 152 92
134 140 -9 27 -47 54 -72 54 -32 0 -272 -129 -411 -221 -154 -101 -317 -232
-437 -353 -48 -47 -89 -86 -92 -86 -3 0 -16 30 -29 68 -20 58 -23 86 -23 207
0 127 3 147 28 220 75 215 236 376 500 500 301 141 725 207 1132 175 180 -14
197 -18 221 -55 16 -25 16 -31 -15 -143 -91 -325 -243 -645 -419 -877 -25 -33
-91 -106 -146 -163 -89 -91 -100 -106 -100 -138 0 -26 7 -41 25 -55 46 -35 72
-26 160 58 270 258 490 654 625 1128 39 137 42 182 13 245 -59 131 -139 153
-549 154 -349 1 -552 -27 -812 -114 -491 -163 -770 -452 -818 -846 -18 -145
12 -320 76 -447 l24 -47 -66 -93 c-124 -172 -206 -326 -284 -532 -31 -79 -40
-94 -44 -75 -61 288 -136 511 -245 728 l-49 97 39 50 c95 122 169 326 184 505
18 216 -52 464 -185 660 -181 266 -560 507 -1002 635 -173 50 -203 54 -233 25
-32 -30 -33 -79 -2 -107 12 -11 63 -30 112 -43 286 -73 570 -205 765 -355 191
-147 320 -339 371 -551 18 -74 20 -111 17 -224 -4 -120 -8 -146 -37 -230 -29
-86 -97 -221 -111 -220 -3 1 -30 38 -60 83 -175 261 -419 500 -775 759 -293
213 -325 228 -372 174 -45 -52 -27 -84 95 -166 144 -97 395 -287 497 -375 178
-155 314 -308 442 -498 75 -111 75 -104 -17 -167 -81 -55 -148 -86 -247 -117
-78 -23 -104 -26 -233 -26 -164 0 -243 16 -375 77 -271 125 -535 413 -728 793
-142 281 -256 627 -312 950 -13 81 -14 97 -1 126 26 64 39 67 251 67 104 0
247 -5 318 -11 127 -12 128 -12 152 11 32 30 33 79 3 108 -30 27 -156 41 -438
47 -156 4 -217 2 -253 -9z m2457 -3647 c38 -23 115 -86 170 -139 91 -87 108
-99 171 -119 153 -49 277 -136 379 -265 71 -90 92 -102 185 -111 80 -8 196
-39 206 -56 4 -5 26 -19 50 -30 40 -19 137 -107 157 -143 8 -15 -108 -16
-1513 -16 l-1522 0 23 25 c41 43 130 97 192 117 39 12 90 18 148 18 49 0 96 3
105 6 9 4 36 37 60 73 98 152 223 252 373 297 115 34 122 38 157 86 95 129
312 259 483 288 87 14 103 11 176 -31z"/>
</g>
</svg>
